<svg xmlns="http://www.w3.org/2000/svg" viewBox="0 0 979 490"><defs><style>.cls-1{fill:#fff;}</style></defs><title>arrow</title><g id="Layer_2" data-name="Layer 2"><g id="Layer_1-2" data-name="Layer 1"><g id="Layer_2-2" data-name="Layer 2"><g id="Layer_1-2-2" data-name="Layer 1-2"><path class="cls-1" d="M819,0H975a17.76,17.76,0,0,1,4,1,33.24,33.24,0,0,0-3.83,2.87Q734,245,492.87,486.18A32.29,32.29,0,0,0,490,490h-2a52.36,52.36,0,0,0-3.9-4.9Q244,245,4,4.88A56.69,56.69,0,0,1,0,0H159c.87,1,1.68,2,2.62,3l324,324.17c1,1,2.15,2,3.44,3.18,1.48-1.41,2.82-2.61,4.09-3.88l318-318.15C813.82,5.6,816.38,2.77,819,0Z"/></g></g></g></g></svg>