<svg xmlns="http://www.w3.org/2000/svg" viewBox="0 0 104.72 22.14"><title>logo</title><g id="Layer_2" data-name="Layer 2"><g id="Logos"><path d="M29.88,7h1.61l3.36,4.86V7H36v6.11H34.34L31,8.24v4.88H29.88Z" fill="#fff"/><path d="M41.42,7h5.22V7.9h-4V9.61h3.68v.89H42.65v1.75h4v.88H41.42Z" fill="#fff"/><path d="M53.7,8H51.28V7h6.05V8H54.93v5.17H53.7Z" fill="#fff"/><path d="M61.6,7h1.21L64,12.13,65.47,7h1.61l1.44,5.11L69.74,7h1.08l-1.54,6.11H67.69L66.26,8l-1.43,5.12H63.15Z" fill="#fff"/><path d="M75.4,12.06v-4L76.46,7h4.2l1.06,1.06v4l-1.06,1.06h-4.2Zm4.55.17.54-.54V8.45l-.54-.54H77.17l-.54.54v3.24l.54.54Z" fill="#fff"/><path d="M87,7h5.14l.95,1v1.6l-.92.93,1.07,2.62H92L91,10.7H88.25v2.42H87Zm4.36,2.81.5-.49v-1l-.44-.44H88.25v2Z" fill="#fff"/><path d="M101.08,10.33l-1.52,1.45v1.34H98.33V7h1.23v3.44L103.08,7h1.5L102,9.54l2.75,3.58h-1.49Z" fill="#fff"/><path d="M11,16.84l-.77,1.75c1.43-.15,2.77-.22,4-.23l-.81-1.84C12.59,16.61,11.79,16.72,11,16.84Z" fill="#d7182a"/><path d="M18.19,16.22l-.87,2.24a25.69,25.69,0,0,1,4.69.7l1.37-2.87C21.53,16.2,19.81,16.18,18.19,16.22Z" fill="#d7182a"/><path d="M.8,20.26a4.38,4.38,0,0,0-.8.66s1.32-.5,3.44-1.06c2-.52,3-.69,4-.88L7,17.68A19.3,19.3,0,0,0,.8,20.26Z" fill="#d7182a"/><polygon points="12.3 3.73 15.89 12.96 22.47 0 15.93 8.61 12.3 0.35 8.66 8.61 2.12 0 8.7 12.96 12.3 3.73" fill="#fff"/><path d="M18.19,16.22l1.74-4.45C21.17,8.61,24.22,0,24.22,0L15.78,17.24,12.29,8.62,8.81,17.24.37,0s3.06,8.61,4.3,11.77L7,17.68l.5,1.3L8.7,22.13l1.55-3.54L11,16.84l1.27-2.91,1.13,2.59.81,1.84,1.65,3.77,1.43-3.68Z" fill="#fff"/></g></g></svg>